<svg width="136" height="137" viewBox="0 0 136 137" fill="none" xmlns="http://www.w3.org/2000/svg">
<path d="M132.749 22.8619H126.289V55.4422H132.749V22.8619Z" fill="#000001"/>
<path d="M113.326 22.8619H126.289V16.3116H113.326V9.80408H106.866V75.0503H113.326V61.9925H126.289V55.4422H113.326V22.8619Z" fill="#000001"/>
<path d="M106.866 75.0503H100.364V81.5578H106.866V75.0503Z" fill="#000001"/>
<path d="M100.364 81.5578H93.9037V88.0653H100.364V81.5578Z" fill="#000001"/>
<path d="M42.0962 127.239V120.688H35.6362V127.239H29.1337V133.746H106.866V127.239H100.364V120.688H93.9037V127.239H42.0962Z" fill="#000001"/>
<path d="M93.9037 114.181H80.9412V120.688H93.9037V114.181Z" fill="#000001"/>
<path d="M93.9037 88.0653H80.9412V94.6156H93.9037V88.0653Z" fill="#000001"/>
<path d="M74.4812 35.8769V22.8619H61.5187V35.8769H42.0962V42.4272H48.5562V48.9347H55.0587V55.4422H48.5562V68.5H61.5187V61.9925H74.4812V68.5H87.4437V55.4422H80.9412V48.9347H87.4437V42.4272H93.9037V35.8769H74.4812Z" fill="#000001"/>
<path d="M80.9412 94.6156H74.4812V114.181H80.9412V94.6156Z" fill="#000001"/>
<path d="M61.5187 94.6156H55.0587V114.181H61.5187V94.6156Z" fill="#000001"/>
<path d="M55.0587 114.181H42.0962V120.688H55.0587V114.181Z" fill="#000001"/>
<path d="M55.0587 88.0653H42.0962V94.6156H55.0587V88.0653Z" fill="#000001"/>
<path d="M42.0962 81.5578H35.6362V88.0653H42.0962V81.5578Z" fill="#000001"/>
<path d="M106.866 3.25375H29.1337V9.80407H106.866V3.25375Z" fill="#000001"/>
<path d="M35.6362 75.0503H29.1337V81.5578H35.6362V75.0503Z" fill="#000001"/>
<path d="M29.1337 9.80408H22.6737V16.3116H9.71118V22.8619H22.6737V55.4422H9.71118V61.9925H22.6737V75.0503H29.1337V9.80408Z" fill="#000001"/>
<path d="M9.71122 22.8619H3.25122V55.4422H9.71122V22.8619Z" fill="#000001"/>
</svg>
